<svg id="svg" version="1.1" xmlns="http://www.w3.org/2000/svg" xmlns:xlink="http://www.w3.org/1999/xlink" width="140" height="80" viewBox="0, 0, 400,229.89130434782606"><g id="svgg"><path id="path0" d="M251.333 152.917 L 251.333 160.833 252.148 160.833 L 252.962 160.833 253.073 160.042 C 253.443 157.413,254.935 155.052,256.972 153.873 C 259.445 152.442,261.532 152.136,269.458 152.044 L 276.000 151.968 275.999 177.276 C 275.998 193.524,275.936 203.120,275.826 204.083 C 275.222 209.363,272.983 211.974,268.792 212.285 L 267.500 212.381 267.500 213.232 L 267.500 214.083 280.417 214.083 L 293.333 214.083 293.333 213.208 L 293.333 212.333 292.452 212.333 C 289.702 212.333,287.474 210.927,286.245 208.417 C 285.028 205.928,285.107 207.917,285.047 178.441 L 284.992 151.965 291.538 152.044 C 302.029 152.171,305.660 153.380,307.172 157.250 C 307.515 158.128,308.000 159.981,308.000 160.415 C 308.000 160.806,308.054 160.833,308.833 160.833 L 309.667 160.833 309.667 152.917 L 309.667 145.000 308.875 145.005 L 308.083 145.009 307.591 146.017 C 307.317 146.578,306.873 147.183,306.591 147.380 C 306.312 147.575,306.046 147.780,306.000 147.837 C 305.811 148.070,304.467 148.490,302.991 148.777 C 301.515 149.064,300.105 149.083,280.333 149.083 L 259.250 149.083 257.623 148.715 C 255.048 148.132,253.837 147.311,253.238 145.741 C 252.956 145.005,252.950 145.000,252.144 145.000 L 251.333 145.000 251.333 152.917 M171.361 148.622 C 170.887 149.931,169.420 154.214,168.750 156.250 C 167.840 159.012,166.331 163.395,166.167 163.750 C 166.082 163.933,165.595 165.358,165.085 166.917 C 164.574 168.475,164.089 169.900,164.007 170.083 C 163.925 170.267,163.698 170.942,163.503 171.583 C 163.308 172.225,163.084 172.870,163.005 173.017 C 162.926 173.164,162.674 173.877,162.445 174.601 C 162.217 175.324,161.303 178.017,160.414 180.583 C 159.525 183.150,158.616 185.813,158.394 186.500 C 158.172 187.188,157.945 187.862,157.890 188.000 C 157.683 188.515,154.617 197.466,154.236 198.667 C 154.017 199.354,153.768 200.067,153.682 200.250 C 153.596 200.433,153.338 201.146,153.109 201.833 C 150.839 208.633,148.048 211.903,144.167 212.305 L 143.083 212.417 143.034 213.255 L 142.985 214.093 152.076 214.088 L 161.167 214.083 161.167 213.208 L 161.167 212.333 160.303 212.333 C 156.201 212.333,154.096 208.634,155.656 204.167 C 155.736 203.938,156.453 201.725,157.250 199.250 C 158.047 196.775,158.762 194.600,158.838 194.417 C 158.914 194.233,159.137 193.558,159.333 192.917 C 159.530 192.275,159.754 191.600,159.832 191.417 C 159.910 191.233,160.300 190.071,160.699 188.833 L 161.425 186.583 172.087 186.583 L 182.750 186.583 183.842 189.833 C 184.442 191.621,185.691 195.333,186.618 198.083 C 188.976 205.081,189.383 206.519,189.378 207.827 C 189.368 210.473,187.717 211.962,184.292 212.416 L 183.500 212.520 183.500 213.310 L 183.500 214.099 194.917 214.091 L 206.333 214.083 206.333 213.208 L 206.333 212.333 205.364 212.333 C 203.485 212.333,201.860 211.576,200.569 210.101 C 199.499 208.878,199.249 208.491,198.453 206.833 C 197.549 204.951,197.800 205.680,190.656 184.250 C 187.538 174.900,184.921 167.100,184.839 166.917 C 184.757 166.733,184.530 166.058,184.333 165.417 C 184.137 164.775,183.912 164.100,183.833 163.917 C 183.755 163.733,183.530 163.058,183.333 162.417 C 183.137 161.775,182.912 161.100,182.833 160.917 C 182.755 160.733,182.530 160.058,182.333 159.417 C 182.137 158.775,181.908 158.100,181.824 157.917 C 181.741 157.733,181.479 156.946,181.243 156.167 C 181.007 155.387,180.771 154.637,180.719 154.500 C 180.667 154.362,180.127 152.787,179.520 151.000 L 178.417 147.750 175.063 147.705 L 171.710 147.660 171.361 148.622 M10.667 150.028 C 10.667 150.899,10.497 150.802,12.652 151.173 C 16.024 151.755,17.824 153.636,18.704 157.500 C 19.127 159.354,19.388 199.157,19.005 203.417 C 18.488 209.174,16.646 211.613,12.292 212.309 L 10.667 212.569 10.667 213.326 L 10.667 214.083 23.583 214.083 L 36.500 214.083 36.500 213.319 L 36.500 212.555 34.914 212.296 C 30.516 211.577,28.623 208.968,28.171 203.000 C 28.078 201.762,28.001 196.569,28.000 191.458 L 28.000 182.167 45.924 182.167 L 63.849 182.167 63.794 193.458 C 63.734 206.029,63.724 206.157,62.583 208.454 C 61.362 210.913,59.602 212.051,56.458 212.413 L 55.500 212.524 55.500 213.304 L 55.500 214.083 68.417 214.083 L 81.333 214.083 81.333 213.304 L 81.333 212.524 80.375 212.418 C 76.247 211.960,74.162 209.963,73.150 205.500 C 72.856 204.203,72.723 162.078,73.004 159.417 C 73.538 154.366,75.491 151.838,79.375 151.168 C 81.498 150.803,81.333 150.899,81.333 150.028 L 81.333 149.250 68.417 149.250 L 55.500 149.250 55.500 150.028 C 55.500 150.883,55.423 150.832,57.083 151.094 C 59.838 151.530,61.551 152.726,62.601 154.948 C 63.711 157.297,63.711 157.296,63.786 168.875 L 63.854 179.333 45.910 179.333 L 27.967 179.333 28.045 169.458 C 28.128 159.033,28.182 158.225,28.941 156.083 C 29.996 153.102,31.642 151.671,34.583 151.177 C 36.658 150.828,36.500 150.922,36.500 150.038 L 36.500 149.250 23.583 149.250 L 10.667 149.250 10.667 150.028 M89.667 150.034 C 89.667 150.810,89.673 150.819,90.292 150.926 C 95.673 151.850,97.356 153.705,97.998 159.417 C 98.324 162.320,98.136 204.260,97.790 205.750 C 96.794 210.039,94.770 211.943,90.708 212.412 L 89.667 212.533 89.667 213.311 L 89.667 214.090 114.238 214.088 L 138.810 214.087 138.907 213.668 C 139.056 213.021,140.995 202.168,140.998 201.958 C 141.006 201.429,139.512 201.874,139.321 202.458 C 138.282 205.628,135.991 208.357,133.281 209.653 C 130.042 211.203,129.042 211.332,120.285 211.333 C 106.691 211.334,107.167 211.973,107.167 193.728 L 107.167 182.667 116.292 182.672 C 129.598 182.681,131.097 183.182,132.298 188.018 L 132.583 189.165 133.292 189.166 L 134.000 189.167 134.000 180.907 L 134.000 172.648 133.306 172.699 L 132.612 172.750 132.263 174.000 C 131.419 177.021,129.791 178.611,126.667 179.466 C 125.918 179.671,124.049 179.730,116.458 179.789 L 107.167 179.860 107.167 165.752 L 107.167 151.643 117.958 151.712 L 128.750 151.782 130.415 152.228 C 133.945 153.175,135.853 155.239,136.584 158.902 C 136.911 160.541,136.883 160.500,137.677 160.500 L 138.333 160.500 138.333 154.875 L 138.333 149.250 114.000 149.250 L 89.667 149.250 89.667 150.034 M209.167 150.038 C 209.167 150.722,209.217 150.837,209.542 150.905 C 209.748 150.948,210.512 151.097,211.239 151.237 C 214.415 151.847,216.025 153.496,217.029 157.167 L 217.417 158.583 217.417 181.667 L 217.417 204.750 216.957 206.399 C 215.871 210.295,213.952 211.984,210.125 212.416 L 209.167 212.524 209.167 213.307 L 209.167 214.089 233.702 214.086 L 258.238 214.083 258.525 212.917 C 258.683 212.275,259.038 210.850,259.313 209.750 C 259.787 207.852,260.722 204.095,261.262 201.917 C 261.398 201.367,261.550 200.785,261.600 200.625 C 261.677 200.372,261.569 200.333,260.781 200.333 L 259.873 200.333 259.442 201.708 C 257.779 207.013,253.670 210.255,247.667 210.998 C 245.225 211.300,232.201 211.143,231.058 210.798 C 228.148 209.919,227.225 208.529,226.824 204.417 C 226.567 201.775,226.706 159.594,226.976 158.333 C 227.438 156.177,228.153 154.323,228.755 153.721 C 228.886 153.591,229.088 153.350,229.205 153.186 C 229.966 152.115,232.008 151.279,234.625 150.966 L 236.333 150.761 236.333 150.006 L 236.333 149.250 222.750 149.250 L 209.167 149.250 209.167 150.038 M315.500 150.034 C 315.500 150.810,315.507 150.819,316.125 150.926 C 321.410 151.833,323.149 153.693,323.825 159.162 C 324.063 161.083,324.065 202.224,323.828 204.171 C 323.196 209.358,321.164 211.758,316.897 212.355 L 315.500 212.551 315.500 213.317 L 315.500 214.083 328.417 214.083 C 340.229 214.083,341.333 214.060,341.333 213.813 C 341.333 213.664,341.379 213.314,341.435 213.035 L 341.536 212.528 340.560 212.415 C 337.232 212.030,335.506 210.945,334.256 208.454 C 333.113 206.176,333.102 206.038,333.039 193.458 L 332.983 182.167 350.922 182.167 L 368.862 182.167 368.788 193.042 C 368.709 204.680,368.682 205.101,367.830 207.508 C 366.764 210.524,364.752 212.034,361.292 212.418 L 360.333 212.524 360.333 213.304 L 360.333 214.083 373.250 214.083 L 386.167 214.083 386.167 213.304 L 386.167 212.524 385.208 212.413 C 380.391 211.857,378.364 209.387,377.828 203.417 C 377.507 199.839,377.707 159.586,378.055 157.876 C 378.884 153.796,380.738 151.768,384.181 151.173 C 386.336 150.802,386.167 150.899,386.167 150.028 L 386.167 149.250 373.250 149.250 L 360.333 149.250 360.333 150.038 C 360.333 150.924,360.191 150.840,362.250 151.170 C 365.096 151.626,366.905 153.179,367.878 156.000 C 368.661 158.271,368.710 158.991,368.788 169.458 L 368.863 179.333 350.921 179.333 L 332.980 179.333 333.045 168.875 C 333.103 159.496,333.141 158.298,333.409 157.262 C 333.745 155.963,334.533 154.110,334.910 153.733 C 335.047 153.596,335.255 153.352,335.371 153.190 C 336.044 152.261,337.787 151.445,339.899 151.073 C 341.452 150.799,341.276 150.923,341.414 150.000 L 341.525 149.250 328.513 149.250 L 315.500 149.250 315.500 150.034 M176.910 168.907 C 179.434 176.502,181.500 182.780,181.500 182.858 C 181.500 182.936,177.254 183.000,172.066 183.000 C 163.149 183.000,162.637 182.984,162.743 182.708 C 163.034 181.956,164.229 178.443,164.601 177.250 C 164.830 176.517,165.085 175.767,165.168 175.583 C 165.320 175.252,165.831 173.755,168.671 165.333 C 169.490 162.904,170.612 159.605,171.164 158.002 C 171.715 156.399,172.167 155.055,172.167 155.016 C 172.167 154.694,172.877 156.773,176.910 168.907 " stroke="none" fill="#848484" fill-rule="evenodd"></path><path id="path1" d="M314.250 50.654 C 311.402 51.199,309.222 52.197,307.225 53.870 C 296.060 63.222,298.752 77.546,314.387 91.983 C 315.320 92.845,316.533 93.975,317.083 94.494 C 319.936 97.185,325.451 101.966,330.042 105.726 L 331.835 107.194 333.209 106.062 C 338.549 101.661,343.844 97.054,347.168 93.917 C 348.042 93.092,349.251 91.967,349.856 91.417 C 364.840 77.777,367.368 63.297,356.417 53.831 C 350.246 48.497,339.302 49.299,333.121 55.540 L 331.825 56.848 330.518 55.529 C 326.306 51.277,320.338 49.489,314.250 50.654 " stroke="none" fill="#fbfbfb" fill-rule="evenodd"></path><path id="path2" d="M313.500 32.884 L 313.500 50.769 314.958 50.460 C 320.277 49.334,326.765 51.482,330.780 55.699 L 331.811 56.781 333.280 55.341 C 337.623 51.087,343.958 49.234,349.458 50.609 L 349.833 50.703 349.833 32.851 L 349.833 15.000 331.667 15.000 L 313.500 15.000 313.500 32.884 M275.000 71.667 L 275.000 89.833 293.605 89.833 L 312.210 89.833 310.480 88.040 C 298.479 75.604,297.031 62.533,306.732 54.200 L 307.547 53.500 291.273 53.500 L 275.000 53.500 275.000 71.667 M356.500 53.850 C 366.626 62.096,365.377 75.221,353.253 87.958 L 351.469 89.833 369.901 89.833 L 388.333 89.833 388.333 71.667 L 388.333 53.500 372.208 53.506 L 356.083 53.511 356.500 53.850 M313.500 109.723 L 313.500 128.333 331.667 128.333 L 349.833 128.333 349.833 109.903 L 349.833 91.472 347.458 93.715 C 343.504 97.450,335.278 104.588,332.459 106.731 C 331.699 107.308,332.028 107.493,328.333 104.409 C 323.049 99.997,318.489 95.960,315.375 92.934 L 313.500 91.113 313.500 109.723 " stroke="none" fill="#8c241c" fill-rule="evenodd"></path><path id="path3" d="M263.782 15.958 C 263.743 16.027,263.616 16.383,263.500 16.750 C 262.667 19.383,260.407 21.505,258.445 21.497 C 257.712 21.494,253.802 20.691,250.375 19.840 C 244.217 18.311,243.293 18.108,238.556 17.248 C 233.290 16.292,222.468 16.258,217.333 17.182 C 211.393 18.251,206.525 19.637,203.083 21.242 C 198.365 23.441,193.861 26.068,191.772 27.838 C 191.576 28.003,191.079 28.410,190.667 28.742 C 188.017 30.872,184.597 34.249,182.796 36.513 C 181.466 38.185,180.358 39.640,180.076 40.083 C 179.901 40.358,179.718 40.621,179.669 40.667 C 179.621 40.712,179.216 41.313,178.771 42.000 C 178.325 42.688,177.820 43.453,177.647 43.702 C 177.475 43.950,177.333 44.181,177.333 44.214 C 177.333 44.248,176.876 45.094,176.317 46.096 C 174.408 49.518,172.341 54.513,171.666 57.338 C 171.547 57.840,171.387 58.362,171.312 58.500 C 171.237 58.637,170.983 59.612,170.748 60.667 C 168.512 70.707,168.481 80.439,170.654 90.333 C 171.009 91.947,172.018 95.346,172.410 96.250 C 172.530 96.525,172.721 97.050,172.837 97.417 C 173.350 99.052,175.022 102.476,176.963 105.864 C 177.375 106.583,178.541 108.379,178.674 108.500 C 178.725 108.546,178.948 108.846,179.170 109.167 C 181.035 111.859,185.447 116.564,188.260 118.862 C 189.984 120.270,192.513 122.122,193.102 122.408 C 193.387 122.547,193.715 122.774,193.831 122.914 C 193.946 123.053,194.108 123.167,194.190 123.167 C 194.273 123.167,194.622 123.345,194.967 123.563 C 195.972 124.197,199.800 126.170,200.517 126.423 C 200.878 126.550,201.416 126.768,201.712 126.907 C 203.337 127.670,206.740 128.760,209.583 129.430 C 210.500 129.646,211.593 129.904,212.012 130.003 C 219.049 131.664,233.611 131.117,240.011 128.951 C 240.417 128.813,241.088 128.611,241.500 128.502 C 241.912 128.393,242.475 128.204,242.750 128.083 C 243.025 127.962,243.700 127.704,244.250 127.509 C 244.800 127.315,245.475 127.050,245.750 126.919 C 246.025 126.789,247.044 126.312,248.014 125.860 C 248.984 125.408,250.296 124.720,250.930 124.331 C 251.565 123.943,252.346 123.476,252.667 123.293 C 252.987 123.111,253.287 122.910,253.333 122.847 C 253.379 122.784,253.717 122.554,254.083 122.336 C 254.450 122.117,254.979 121.746,255.259 121.511 C 255.539 121.276,256.024 120.896,256.336 120.667 C 257.960 119.475,261.528 116.012,262.952 114.247 C 263.246 113.882,263.762 113.246,264.099 112.833 C 266.139 110.334,270.083 103.516,269.706 103.139 C 269.536 102.970,266.949 101.651,266.911 101.715 C 265.799 103.560,264.257 105.996,264.036 106.254 C 263.956 106.348,263.747 106.648,263.573 106.921 C 263.223 107.468,261.332 109.964,260.670 110.750 C 259.961 111.594,255.619 115.900,255.000 116.374 C 254.679 116.619,253.967 117.160,253.417 117.576 C 252.867 117.992,252.334 118.399,252.234 118.482 C 251.360 119.200,247.109 121.494,245.417 122.161 C 244.867 122.377,244.342 122.609,244.250 122.676 C 244.068 122.809,240.963 123.737,239.500 124.096 C 235.472 125.084,228.368 125.449,225.000 124.841 C 224.496 124.750,223.333 124.558,222.417 124.413 C 220.743 124.150,216.850 123.156,215.917 122.754 C 215.642 122.635,214.967 122.365,214.417 122.153 C 206.471 119.096,198.728 112.197,193.386 103.417 C 192.797 102.449,190.833 98.858,190.833 98.750 C 190.833 98.709,190.650 98.280,190.425 97.796 C 186.546 89.429,184.616 77.916,185.163 66.395 C 185.325 62.983,185.731 58.565,185.934 58.000 C 185.983 57.862,186.171 56.925,186.352 55.917 C 186.713 53.906,187.715 50.054,188.094 49.225 C 188.225 48.936,188.333 48.610,188.333 48.500 C 188.333 48.109,190.415 43.164,191.070 42.000 C 191.199 41.771,191.476 41.246,191.686 40.833 C 191.896 40.421,192.129 40.008,192.204 39.917 C 192.278 39.825,192.767 39.075,193.289 38.250 C 193.812 37.425,194.283 36.712,194.336 36.667 C 194.389 36.621,194.601 36.343,194.806 36.049 C 195.011 35.755,195.323 35.342,195.499 35.132 C 195.675 34.922,196.130 34.375,196.511 33.917 C 197.782 32.387,199.567 30.614,201.250 29.212 C 203.251 27.544,202.606 28.009,206.167 25.669 C 206.552 25.416,209.316 24.054,210.667 23.451 C 210.987 23.308,211.625 23.068,212.083 22.917 C 212.542 22.767,213.142 22.544,213.417 22.421 C 219.500 19.701,234.451 19.962,242.333 22.926 C 248.934 25.407,254.200 29.824,258.605 36.574 C 260.332 39.220,262.283 44.095,263.410 48.583 L 263.787 50.083 265.060 50.132 L 266.333 50.181 266.333 33.007 L 266.333 15.833 265.093 15.833 C 264.411 15.833,263.821 15.890,263.782 15.958 M39.410 16.674 C 33.781 17.410,28.792 19.575,24.548 23.126 C 22.725 24.650,21.455 26.034,19.231 28.917 C 18.552 29.797,17.054 32.769,16.417 34.500 C 14.227 40.448,14.215 48.374,16.388 54.457 C 18.044 59.094,21.175 63.415,25.500 67.031 C 26.004 67.453,26.904 68.205,27.500 68.702 C 28.096 69.199,29.191 70.067,29.933 70.631 C 31.230 71.615,31.789 72.010,34.167 73.621 C 34.762 74.024,35.400 74.464,35.583 74.598 C 36.010 74.909,39.377 77.071,40.623 77.833 C 41.147 78.154,42.429 78.960,43.471 79.625 C 44.513 80.290,45.434 80.833,45.516 80.833 C 45.599 80.833,45.667 80.890,45.668 80.958 C 45.669 81.027,46.277 81.458,47.018 81.917 C 47.759 82.375,48.452 82.827,48.558 82.921 C 48.664 83.014,49.424 83.539,50.249 84.087 C 51.073 84.635,51.861 85.172,51.999 85.281 C 52.137 85.389,53.038 86.057,54.000 86.764 C 54.962 87.471,55.981 88.245,56.263 88.483 C 56.546 88.722,57.100 89.179,57.495 89.500 C 59.301 90.966,61.320 93.020,62.834 94.934 C 63.174 95.363,64.500 97.576,64.500 97.714 C 64.500 97.775,64.681 98.220,64.902 98.704 C 66.848 102.958,66.971 109.560,65.180 113.566 C 65.012 113.942,64.726 114.591,64.545 115.007 C 62.721 119.201,56.931 124.089,52.223 125.407 C 51.688 125.557,51.100 125.751,50.917 125.838 C 49.011 126.743,41.318 126.893,37.745 126.095 C 35.457 125.583,31.832 124.304,31.167 123.772 C 31.029 123.663,30.579 123.393,30.167 123.173 C 27.840 121.932,24.166 118.618,22.667 116.408 C 20.086 112.604,18.908 109.883,17.911 105.417 C 17.788 104.867,17.595 103.610,17.482 102.625 L 17.276 100.833 15.805 100.833 L 14.333 100.833 14.333 115.750 L 14.333 130.667 15.833 130.667 L 17.333 130.667 17.337 130.208 C 17.360 127.329,21.053 125.769,24.917 127.006 C 25.192 127.094,26.167 127.346,27.083 127.566 C 28.000 127.786,29.575 128.204,30.583 128.494 C 44.077 132.379,55.428 131.349,64.031 125.459 C 65.402 124.520,66.194 123.957,66.435 123.750 C 66.542 123.658,67.028 123.246,67.516 122.833 C 68.608 121.909,70.360 120.154,71.250 119.091 C 71.617 118.654,72.029 118.171,72.167 118.019 C 72.389 117.773,73.350 116.349,74.429 114.667 C 75.378 113.186,76.677 109.930,77.155 107.833 C 77.354 106.962,77.586 105.985,77.671 105.662 C 78.191 103.676,78.190 97.163,77.668 95.167 C 77.585 94.846,77.387 93.983,77.229 93.250 C 76.723 90.894,74.534 85.611,73.608 84.508 C 73.488 84.366,73.224 83.958,73.021 83.602 C 72.015 81.841,68.129 77.493,65.997 75.744 C 64.647 74.636,61.168 72.214,58.583 70.581 C 58.033 70.234,57.321 69.781,57.000 69.576 C 55.831 68.827,54.909 68.254,54.583 68.075 C 53.853 67.674,53.413 67.413,53.333 67.332 C 53.178 67.174,50.658 65.667,50.550 65.667 C 50.491 65.667,50.325 65.563,50.180 65.437 C 50.035 65.311,49.579 65.028,49.167 64.808 C 48.754 64.588,48.229 64.290,48.000 64.146 C 47.771 64.001,46.983 63.537,46.250 63.115 C 45.517 62.693,44.841 62.288,44.749 62.215 C 44.657 62.143,44.244 61.903,43.832 61.684 C 43.420 61.464,42.971 61.194,42.833 61.083 C 42.696 60.973,42.246 60.703,41.834 60.483 C 41.422 60.263,41.010 60.027,40.918 59.958 C 40.450 59.610,38.855 58.601,38.417 58.376 C 38.142 58.235,37.879 58.065,37.833 57.998 C 37.787 57.930,37.522 57.735,37.243 57.563 C 36.115 56.866,34.047 55.213,32.533 53.797 C 31.207 52.556,28.167 48.917,28.167 48.570 C 28.167 48.519,27.955 48.163,27.697 47.780 C 23.634 41.760,23.726 32.150,27.895 27.202 C 29.960 24.751,33.064 22.572,35.677 21.738 C 36.176 21.579,36.658 21.393,36.750 21.324 C 36.927 21.191,39.781 20.634,41.782 20.342 C 53.335 18.656,64.766 26.025,67.751 37.083 C 67.899 37.633,68.089 38.233,68.172 38.417 C 68.255 38.600,68.426 39.275,68.550 39.917 L 68.777 41.083 70.222 41.131 L 71.667 41.180 71.667 28.840 L 71.667 16.500 70.256 16.500 L 68.846 16.500 68.669 17.160 C 67.801 20.382,65.527 20.756,58.500 18.832 C 56.599 18.311,54.263 17.727,52.152 17.243 C 49.227 16.572,42.488 16.272,39.410 16.674 M122.567 16.789 C 122.517 16.951,122.412 17.204,122.335 17.351 C 122.258 17.498,122.007 18.210,121.779 18.934 C 121.551 19.658,120.916 21.525,120.369 23.083 C 119.163 26.515,119.392 25.849,118.251 29.250 C 117.729 30.808,117.261 32.196,117.212 32.333 C 116.760 33.595,114.964 38.846,114.162 41.250 C 113.612 42.900,113.091 44.400,113.004 44.583 C 112.917 44.767,112.432 46.154,111.925 47.667 C 111.418 49.179,110.490 51.917,109.862 53.750 C 109.234 55.583,108.328 58.246,107.848 59.667 C 107.369 61.087,106.914 62.400,106.838 62.583 C 106.762 62.767,106.273 64.192,105.751 65.750 C 105.230 67.308,104.740 68.733,104.664 68.917 C 104.588 69.100,104.339 69.813,104.111 70.500 C 103.882 71.188,102.974 73.850,102.093 76.417 C 101.212 78.983,100.078 82.321,99.572 83.833 C 99.067 85.346,98.584 86.733,98.499 86.917 C 98.413 87.100,97.926 88.525,97.415 90.083 C 96.905 91.642,96.418 93.067,96.333 93.250 C 96.248 93.433,95.796 94.746,95.327 96.167 C 94.859 97.587,94.410 98.900,94.330 99.083 C 94.250 99.267,93.762 100.692,93.246 102.250 C 92.730 103.808,92.244 105.233,92.167 105.417 C 92.089 105.600,91.837 106.313,91.606 107.000 C 91.036 108.701,90.382 110.447,90.015 111.250 C 89.847 111.617,89.655 112.104,89.587 112.333 C 89.416 112.909,87.494 116.716,86.809 117.833 C 84.008 122.406,80.556 124.849,76.154 125.375 L 74.500 125.573 74.500 126.968 L 74.500 128.363 79.958 128.223 C 86.814 128.048,93.294 128.045,99.875 128.217 L 105.000 128.350 105.000 126.950 L 105.000 125.550 103.507 125.444 C 101.959 125.334,100.658 125.105,100.083 124.841 C 99.900 124.757,99.406 124.543,98.985 124.365 C 95.029 122.695,93.721 117.865,95.525 111.583 C 95.900 110.276,99.291 99.769,99.505 99.250 C 99.581 99.067,99.803 98.392,100.000 97.750 C 100.197 97.108,100.422 96.433,100.500 96.250 C 100.578 96.067,100.802 95.392,100.997 94.750 C 101.192 94.108,101.415 93.465,101.492 93.321 C 101.569 93.177,101.793 92.502,101.988 91.821 C 102.184 91.140,103.009 88.596,103.822 86.167 L 105.300 81.750 123.275 81.708 L 141.250 81.667 141.656 83.042 C 141.880 83.798,142.122 84.529,142.195 84.667 C 142.325 84.914,146.700 97.941,147.792 101.333 C 148.101 102.296,148.419 103.233,148.499 103.417 C 148.578 103.600,148.803 104.275,149.000 104.917 C 149.197 105.558,149.422 106.233,149.501 106.417 C 149.829 107.181,151.505 112.548,151.895 114.083 C 153.634 120.936,150.246 125.429,143.292 125.494 L 142.667 125.500 142.667 126.931 L 142.667 128.361 149.958 128.222 C 159.121 128.048,167.206 128.046,174.958 128.216 L 181.000 128.349 181.000 126.924 L 181.000 125.500 179.826 125.500 C 174.176 125.500,168.665 120.641,166.499 113.750 C 166.384 113.383,166.232 113.008,166.162 112.917 C 166.017 112.726,163.399 104.956,155.326 80.750 C 152.207 71.400,149.587 63.600,149.503 63.417 C 149.418 63.233,149.195 62.558,149.007 61.917 C 148.818 61.275,148.596 60.600,148.513 60.417 C 148.430 60.233,147.716 58.096,146.925 55.667 C 146.135 53.237,145.421 51.100,145.339 50.917 C 145.258 50.733,145.030 50.058,144.833 49.417 C 144.637 48.775,144.413 48.100,144.336 47.917 C 144.259 47.733,143.548 45.596,142.757 43.167 C 141.966 40.737,141.272 38.637,141.215 38.500 C 141.158 38.362,139.483 33.375,137.492 27.417 L 133.873 16.583 128.265 16.539 C 123.032 16.498,122.652 16.515,122.567 16.789 M126.574 37.583 C 128.204 42.533,129.599 46.733,129.673 46.917 C 129.748 47.100,129.970 47.775,130.167 48.417 C 130.363 49.058,130.592 49.733,130.676 49.917 C 130.759 50.100,131.020 50.887,131.255 51.667 C 131.491 52.446,131.749 53.233,131.830 53.417 C 131.910 53.600,132.137 54.275,132.333 54.917 C 132.530 55.558,132.755 56.233,132.833 56.417 C 132.912 56.600,133.137 57.275,133.333 57.917 C 133.530 58.558,133.755 59.233,133.833 59.417 C 133.912 59.600,134.137 60.275,134.333 60.917 C 134.530 61.558,134.759 62.233,134.842 62.417 C 134.926 62.600,135.187 63.387,135.422 64.167 C 135.657 64.946,135.916 65.733,135.996 65.917 C 136.077 66.100,136.303 66.775,136.500 67.417 C 136.697 68.058,136.919 68.733,136.995 68.917 C 137.071 69.100,137.584 70.637,138.136 72.333 C 138.687 74.029,139.190 75.548,139.254 75.708 C 139.363 75.985,138.539 76.000,123.351 76.000 C 114.541 76.000,107.334 75.944,107.336 75.875 C 107.337 75.806,107.711 74.662,108.168 73.333 C 108.624 72.004,109.671 68.929,110.494 66.500 C 111.317 64.071,112.730 59.908,113.633 57.250 C 114.537 54.592,115.668 51.254,116.147 49.833 C 116.626 48.413,117.084 47.100,117.164 46.917 C 117.244 46.733,117.470 46.058,117.667 45.417 C 117.863 44.775,118.089 44.100,118.168 43.917 C 118.247 43.733,118.733 42.308,119.249 40.750 C 119.764 39.192,120.251 37.767,120.331 37.583 C 120.411 37.400,120.635 36.725,120.830 36.083 C 121.025 35.442,121.242 34.804,121.312 34.667 C 121.383 34.529,121.885 33.052,122.428 31.385 C 122.972 29.718,123.460 28.405,123.514 28.469 C 123.567 28.532,124.944 32.633,126.574 37.583 " stroke="none" fill="#0c4c64" fill-rule="evenodd"></path><path id="path4" d="M317.048 50.290 C 317.578 50.323,318.403 50.323,318.881 50.289 C 319.359 50.256,318.925 50.229,317.917 50.229 C 316.908 50.229,316.517 50.257,317.048 50.290 M344.792 50.290 C 345.273 50.323,346.060 50.323,346.542 50.290 C 347.023 50.256,346.629 50.228,345.667 50.228 C 344.704 50.228,344.310 50.256,344.792 50.290 " stroke="none" fill="#a45c54" fill-rule="evenodd"></path></g></svg>